<svg width="90" height="73" viewBox="0 0 90 73" fill="none" xmlns="http://www.w3.org/2000/svg">
<path d="M86.8422 10.2615L80.5966 10.2612V3.79597C80.5966 2.31578 79.5136 1.05818 78.0496 0.839183C77.794 0.800784 71.7094 -0.0830128 64.3825 1.25018C56.2145 2.73637 49.7003 6.40146 45.2822 11.9421C40.8638 6.40146 34.3497 2.73637 26.1819 1.25018C18.8547 -0.0827128 12.7702 0.800784 12.5149 0.839183C11.0509 1.05848 9.96788 2.31608 9.96788 3.79597V10.2612H3.72221C2.07132 10.2612 0.732422 11.6001 0.732422 13.2513V69.5926C0.732422 70.5607 1.20102 71.4688 1.99032 72.0298C2.77961 72.5908 3.79151 72.7348 4.7056 72.4162C4.93 72.3385 27.3348 64.6921 44.0414 72.3127C44.8298 72.6724 45.7349 72.6724 46.5233 72.3127C63.1831 64.7137 85.6359 72.3391 85.8591 72.4162C86.1795 72.5278 86.5113 72.5827 86.8419 72.5827C87.4548 72.5827 88.0614 72.3943 88.5744 72.0301C89.3637 71.4691 89.8323 70.561 89.8323 69.5929V13.2516C89.832 11.6004 88.4934 10.2615 86.8422 10.2615ZM6.7123 65.5921V16.2411H9.96788V56.0587C9.96788 56.9275 10.348 57.7525 11.0053 58.3204C11.6626 58.8883 12.5368 59.143 13.396 59.0161C13.561 58.9921 26.5497 57.2089 36.0393 63.7198C24.3498 61.7209 12.6505 64.033 6.7123 65.5921ZM42.2924 61.0234C38.1129 57.247 32.6688 54.6935 26.1819 53.5133C23.0601 52.9451 20.1639 52.7795 17.8479 52.7795C17.1603 52.7795 16.5238 52.7942 15.9481 52.8173V6.54156H15.9478C21.6942 6.28236 35.6733 6.89676 42.2924 18.1176V61.0234ZM48.272 18.1179C54.8675 6.94506 68.8684 6.30276 74.6167 6.54906V52.8173C72.1018 52.7159 68.4307 52.7765 64.3825 53.5133C57.8957 54.6935 52.4516 57.2467 48.272 61.0234V18.1179ZM54.5153 63.7216C64.006 57.2068 77.0017 58.9918 77.1637 59.0158C78.025 59.1451 78.8986 58.8919 79.558 58.3243C80.2174 57.7561 80.5966 56.9293 80.5966 56.0587V16.2414H83.8521V65.5921C77.9122 64.0324 66.208 61.7194 54.5153 63.7216Z" fill="black"/>
</svg>
