<svg width="48" height="48" viewBox="0 0 48 48" fill="none" xmlns="http://www.w3.org/2000/svg">
<circle cx="23.6394" cy="23.6394" r="23.6394" fill="white"/>
<g clip-path="url(#clip0_430_340)">
<path d="M37.3291 14.0507C37.0693 13.6838 36.7984 13.3261 36.51 12.9816C33.3778 9.22281 28.6642 6.82568 23.4017 6.82568C23.3919 6.82568 23.3842 6.82638 23.3758 6.82638C23.3702 6.82638 23.366 6.82568 23.3604 6.82568C23.3415 6.82568 23.3218 6.82778 23.3015 6.82778C18.0789 6.85789 13.4066 9.24801 10.2926 12.9816C10.0056 13.3268 9.73328 13.6838 9.47355 14.0507C7.50212 16.8335 6.33789 20.2269 6.33789 23.8898C6.33789 27.552 7.50142 30.9468 9.47355 33.7289C9.73328 34.0958 10.0056 34.4535 10.2926 34.798C13.4059 38.5316 18.0782 40.9217 23.3015 40.9518C23.3218 40.9518 23.3415 40.9539 23.3604 40.9539C23.366 40.9539 23.3702 40.9532 23.3751 40.9532C23.3835 40.9532 23.3912 40.9539 23.401 40.9539C28.6642 40.9539 33.3771 38.5575 36.51 34.7987C36.797 34.4542 37.0693 34.0958 37.3291 33.7289C39.3005 30.9461 40.4647 27.5527 40.4647 23.8891C40.4647 20.2276 39.3005 16.8335 37.3291 14.0507ZM18.4136 9.04498C16.8454 10.5579 15.5419 12.7695 14.6436 15.4236C13.4402 14.9741 12.3572 14.4329 11.4233 13.821C13.254 11.6465 15.6616 9.97191 18.4136 9.04498ZM10.6014 14.8915C11.6627 15.6 12.8892 16.2196 14.2453 16.7299C13.66 18.868 13.324 21.2413 13.3114 23.7456H7.74085C7.77096 20.4516 8.83158 17.4034 10.6014 14.8915ZM7.79336 25.1458H13.3387C13.429 27.2419 13.7475 29.2308 14.2439 31.0504C12.8871 31.5607 11.6613 32.1803 10.6014 32.8895C9.0325 30.6625 8.02088 28.0148 7.79336 25.1458ZM11.4275 33.9558C12.3614 33.3453 13.4416 32.8055 14.6422 32.356C15.5405 35.0108 16.8447 37.221 18.4136 38.7339C15.6616 37.8077 13.2589 36.1296 11.4275 33.9558ZM22.7016 39.5033C19.8284 39.1099 17.3488 36.1632 15.943 31.9192C17.9697 31.3115 20.2639 30.9433 22.7016 30.8837V39.5033ZM22.7016 29.485C20.1309 29.5466 17.7079 29.9435 15.5503 30.6058C15.1085 28.9284 14.8257 27.0878 14.741 25.1465H22.7016V29.485ZM22.7016 23.7456H14.7116C14.7242 21.394 15.0301 19.1726 15.5566 17.1759C17.7114 17.8361 20.133 18.2337 22.7009 18.2946V23.7456H22.7016ZM22.7016 16.8958C20.2653 16.8363 17.9718 16.4695 15.9472 15.8618C17.3523 11.6199 19.8298 8.67043 22.7016 8.27628V16.8958ZM39.0604 23.7456H33.4093C33.3967 21.2518 33.0649 18.8883 32.4838 16.7579C33.87 16.2427 35.1224 15.6133 36.2012 14.8922C37.9703 17.4041 39.0303 20.4516 39.0604 23.7456ZM35.3779 13.8224C34.4251 14.4462 33.3176 14.9958 32.0855 15.4502C31.1789 12.7597 29.8564 10.5215 28.2637 9.00298C31.0668 9.9208 33.5185 11.6143 35.3779 13.8224ZM24.1017 8.28678C26.9434 8.72574 29.3908 11.6696 30.7812 15.8828C28.7755 16.4772 26.5079 16.837 24.1017 16.8958V8.28678ZM24.1017 18.2953C26.6395 18.2351 29.0338 17.8459 31.1698 17.1997C31.6934 19.1908 31.9972 21.4038 32.0091 23.7463H24.1017V18.2953ZM24.1017 25.1458H31.9804C31.8957 27.078 31.6143 28.9102 31.1768 30.5827C29.038 29.9344 26.6409 29.5459 24.1031 29.485L24.1017 25.1458ZM24.1017 39.4928V30.8844C26.5093 30.9433 28.7769 31.3031 30.7854 31.8975C29.3929 36.1121 26.9427 39.0539 24.1017 39.4928ZM28.2637 38.7773C29.8564 37.2595 31.1817 35.0227 32.0883 32.3315C33.3176 32.7852 34.4237 33.3341 35.3751 33.9565C33.5157 36.1639 31.0668 37.8588 28.2637 38.7773ZM36.2012 32.8895C35.1224 32.1684 33.87 31.5376 32.4831 31.0231C32.9746 29.2112 33.2903 27.2314 33.3792 25.1465H39.0086C38.781 28.0148 37.7722 30.6632 36.2012 32.8895Z" fill="#6B523B"/>
</g>
<defs>
<clipPath id="clip0_430_340">
<rect width="34.1282" height="34.1282" fill="white" transform="translate(6.33789 6.82568)"/>
</clipPath>
</defs>
</svg>
