<svg width="19" height="28" viewBox="0 0 19 28" fill="none" xmlns="http://www.w3.org/2000/svg">
<path d="M17.59 4.68638C15.9292 1.82017 12.9791 0.0690844 9.69862 0.00216474C9.55858 -0.000721578 9.41763 -0.000721578 9.27754 0.00216474C5.99708 0.0690844 3.04705 1.82017 1.38614 4.68638C-0.311544 7.6161 -0.357993 11.1353 1.26187 14.1002L8.04807 26.5213C8.05112 26.5269 8.05417 26.5324 8.05732 26.5378C8.35589 27.0568 8.89077 27.3666 9.48818 27.3666C10.0855 27.3666 10.6204 27.0567 10.9189 26.5378C10.9221 26.5324 10.9251 26.5269 10.9282 26.5213L17.7144 14.1002C19.3341 11.1353 19.2877 7.6161 17.59 4.68638V4.68638ZM9.48808 12.4005C7.36605 12.4005 5.63966 10.6741 5.63966 8.55207C5.63966 6.43004 7.36605 4.70365 9.48808 4.70365C11.6101 4.70365 13.3365 6.43004 13.3365 8.55207C13.3365 10.6741 11.6102 12.4005 9.48808 12.4005Z" fill="white"/>
</svg>
