<svg width="57" height="57" viewBox="0 0 57 57" fill="none" xmlns="http://www.w3.org/2000/svg">
<circle cx="28.4192" cy="28.2137" r="27.9451" fill="#6B523B"/>
<path d="M46.5145 18.7689C46.0791 17.1502 44.8028 15.8741 43.1843 15.4382C40.2274 14.6292 28.3995 14.6292 28.3995 14.6292C28.3995 14.6292 16.5722 14.6292 13.6153 15.4075C12.0278 15.843 10.7204 17.1504 10.285 18.7689C9.50684 21.7256 9.50684 27.8574 9.50684 27.8574C9.50684 27.8574 9.50684 34.02 10.285 36.9458C10.7209 38.5643 11.9967 39.8404 13.6155 40.2763C16.6033 41.0856 28.4 41.0856 28.4 41.0856C28.4 41.0856 40.2274 41.0856 43.1843 40.3072C44.803 39.8715 46.0791 38.5955 46.515 36.9769C47.2929 34.02 47.2929 27.8885 47.2929 27.8885C47.2929 27.8885 47.3241 21.7256 46.5145 18.7689ZM24.6338 33.5221V22.1926L34.4692 27.8574L24.6338 33.5221Z" fill="white"/>
</svg>
