<svg width="126" height="126" viewBox="0 0 126 126" fill="none" xmlns="http://www.w3.org/2000/svg">
<path d="M65.0378 102.059H58.9521C54.6662 102.059 51.1831 105.542 51.1831 109.828V118.231C51.1831 122.517 54.6662 126 58.9521 126H65.0378C69.3238 126 72.8068 122.517 72.8068 118.231V109.828C72.8068 105.529 69.3238 102.059 65.0378 102.059Z" fill="black"/>
<path d="M22.1271 37.0063L33.3533 38.4047C36.9141 38.8449 40.2936 36.7991 41.5755 33.4455C43.194 29.2114 45.4471 25.8707 48.3345 23.4364C52.4263 19.9922 57.5149 18.2571 63.6006 18.2571C69.9064 18.2571 74.9304 19.9145 78.6595 23.2163C82.3886 26.5311 84.2402 30.4933 84.2402 35.1417C84.2402 38.4824 83.1914 41.5382 81.0937 44.3091C79.7342 46.0701 75.5519 49.7733 68.5727 55.4317C61.5807 61.0901 56.9323 66.1916 54.6016 70.7235C52.2192 75.3591 51.3905 80.4995 51.1833 85.6531C51.0021 90.0684 54.5239 93.7457 58.9523 93.7457H65.2969C69.3368 93.7457 72.6775 90.6511 73.04 86.6371C73.299 83.7498 73.7781 81.5615 74.5033 80.0725C75.7203 77.5215 78.8668 74.155 83.9166 69.9598C93.6925 61.867 100.063 55.4706 103.054 50.7574C106.032 46.0571 107.534 41.072 107.534 35.8021C107.534 26.2851 103.482 17.9334 95.3629 10.76C87.2573 3.58668 76.3289 0 62.6037 0C49.5518 0 39.0248 3.53489 30.9969 10.6176C24.1602 16.6515 20.0038 23.799 18.5406 32.0471C18.0873 34.4554 19.7317 36.7085 22.1271 37.0063Z" fill="black"/>
</svg>
