<svg width="57" height="57" viewBox="0 0 57 57" fill="none" xmlns="http://www.w3.org/2000/svg">
<circle cx="28.8943" cy="28.2137" r="27.9451" fill="#6B523B"/>
<g clip-path="url(#clip0_430_322)">
<path d="M40.2538 11.823H17.2661C14.6402 11.823 12.5034 13.9597 12.5034 16.5857V39.5734C12.5034 42.1993 14.6402 44.336 17.2661 44.336H26.8549V32.8422H23.0448V27.127H26.8549V23.2534C26.8549 20.1018 29.4185 17.5382 32.5701 17.5382H38.3487V23.2534H32.5701V27.127H38.3487L37.3962 32.8422H32.5701V44.336H40.2538C42.8797 44.336 45.0165 42.1993 45.0165 39.5734V16.5857C45.0165 13.9597 42.8797 11.823 40.2538 11.823Z" fill="white"/>
</g>
<defs>
<clipPath id="clip0_430_322">
<rect width="32.513" height="32.513" fill="white" transform="translate(12.5034 11.823)"/>
</clipPath>
</defs>
</svg>
