<svg width="138" height="138" viewBox="0 0 138 138" fill="none" xmlns="http://www.w3.org/2000/svg">
<g clip-path="url(#clip0_435_410)">
<path d="M133.622 51.1685C128.53 46.8953 120.91 47.5639 116.644 52.6469L105.18 66.2132V26.8743C105.18 23.5772 103.809 20.3843 101.418 18.114L86.1189 3.58045C83.8636 1.43795 80.9083 0.257812 77.7975 0.257812H12.5435C5.88101 0.257812 0.460449 5.67838 0.460449 12.3408V125.653C0.460449 132.315 5.88101 137.736 12.5435 137.736H93.0971C99.7596 137.736 105.18 132.315 105.18 125.653V103.645C105.675 103.059 135.019 68.3007 135.111 68.1914C139.404 63.0756 138.739 55.4615 133.622 51.1685ZM81.0141 9.8412C97.1286 25.1489 95.9842 24.0299 96.2863 24.4241H81.0141V9.8412ZM97.1246 125.653C97.1246 127.874 95.3178 129.681 93.0968 129.681H12.5435C10.3226 129.681 8.51571 127.874 8.51571 125.653V12.3408C8.51571 10.1199 10.3226 8.31307 12.5435 8.31307H72.9586V28.4514C72.9586 30.6758 74.7619 32.4791 76.9863 32.4791H97.1246V75.7451C95.3946 77.7923 81.5028 94.2306 80.0012 96.0074C78.8018 97.437 77.9385 99.152 77.5051 100.967L73.762 116.637C73.4078 118.12 73.922 119.677 75.0906 120.658C76.2603 121.64 77.8829 121.874 79.2813 121.268L94.0632 114.861C95.173 114.379 96.2082 113.726 97.1246 112.94V125.653V125.653ZM87.5447 99.5615L93.7147 104.739L92.3426 106.364C91.9433 106.84 91.4302 107.223 90.8596 107.47L83.4689 110.674L85.3407 102.839C85.4852 102.234 85.7728 101.662 86.1635 101.197L87.5447 99.5615ZM98.9108 98.5833L92.7437 93.4087C93.3694 92.6684 113.607 68.7204 115.007 67.0644L121.161 72.2283L98.9108 98.5833ZM128.949 63.0042L126.358 66.0733L120.206 60.9119L122.806 57.8355C124.226 56.143 126.756 55.9223 128.444 57.339C130.166 58.7834 130.356 61.327 128.949 63.0042Z" fill="black"/>
<path d="M60.8759 24.4238H20.5991C18.3747 24.4238 16.5713 26.2272 16.5713 28.4516C16.5713 30.676 18.3747 32.4794 20.5991 32.4794H60.8759C63.1003 32.4794 64.9036 30.676 64.9036 28.4516C64.9036 26.2272 63.1003 24.4238 60.8759 24.4238Z" fill="black"/>
<path d="M85.0419 48.8584H20.5991C18.3747 48.8584 16.5713 50.6618 16.5713 52.8862C16.5713 55.1106 18.3747 56.9139 20.5991 56.9139H85.0419C87.2663 56.9139 89.0697 55.1106 89.0697 52.8862C89.0697 50.6618 87.2663 48.8584 85.0419 48.8584Z" fill="black"/>
<path d="M85.0419 73.0244H20.5991C18.3747 73.0244 16.5713 74.8278 16.5713 77.0522C16.5713 79.2766 18.3747 81.0799 20.5991 81.0799H85.0419C87.2663 81.0799 89.0697 79.2766 89.0697 77.0522C89.0697 74.8275 87.2663 73.0244 85.0419 73.0244Z" fill="black"/>
<path d="M60.8754 97.1914H20.5986C18.3742 97.1914 16.5708 98.9948 16.5708 101.219C16.5708 103.444 18.3742 105.247 20.5986 105.247H60.8754C63.0998 105.247 64.9031 103.444 64.9031 101.219C64.9031 98.9948 63.0998 97.1914 60.8754 97.1914Z" fill="black"/>
</g>
<defs>
<clipPath id="clip0_435_410">
<rect width="137.481" height="137.481" fill="white" transform="translate(0.460449 0.256348)"/>
</clipPath>
</defs>
</svg>
