<svg width="56" height="56" viewBox="0 0 56 56" fill="none" xmlns="http://www.w3.org/2000/svg">
<circle cx="27.9451" cy="27.9451" r="27.9451" fill="#6B523B"/>
<g clip-path="url(#clip0_430_326)">
<path d="M27.9505 18.7004C22.8451 18.7004 18.7119 22.8382 18.7119 27.939C18.7119 33.0444 22.8496 37.1776 27.9505 37.1776C33.0559 37.1776 37.1891 33.0399 37.1891 27.939C37.1891 22.8337 33.0514 18.7004 27.9505 18.7004ZM27.9505 33.9356C24.6364 33.9356 21.954 31.2516 21.954 27.939C21.954 24.6265 24.6379 21.9425 27.9505 21.9425C31.2631 21.9425 33.947 24.6265 33.947 27.939C33.9485 31.2516 31.2646 33.9356 27.9505 33.9356Z" fill="white"/>
<path d="M35.3676 10.0574C32.0551 9.90291 23.8501 9.91041 20.5346 10.0574C17.6211 10.194 15.0511 10.8976 12.9793 12.9694C9.51669 16.432 9.95926 21.0978 9.95926 27.9405C9.95926 34.9437 9.5692 39.5015 12.9793 42.9116C16.4554 46.3862 21.1887 45.9316 27.9503 45.9316C34.8875 45.9316 37.2819 45.9361 39.7349 44.9864C43.0699 43.6917 45.5874 40.7107 45.8334 35.3563C45.9894 32.0422 45.9804 23.8388 45.8334 20.5232C45.5364 14.2026 42.1443 10.3695 35.3676 10.0574ZM40.611 40.6207C38.3411 42.8906 35.1921 42.688 27.9068 42.688C20.4056 42.688 17.3975 42.7991 15.2027 40.5982C12.6747 38.0823 13.1323 34.0421 13.1323 27.9165C13.1323 19.6276 12.2817 13.6581 20.6006 13.232C22.5119 13.1645 23.0745 13.142 27.8858 13.142L27.9534 13.187C35.9482 13.187 42.2208 12.3498 42.5974 20.6673C42.6829 22.5651 42.7024 23.1352 42.7024 27.939C42.7009 35.3533 42.8419 38.3793 40.611 40.6207Z" fill="white"/>
<path d="M37.5554 20.495C38.7477 20.495 39.7142 19.5284 39.7142 18.3361C39.7142 17.1438 38.7477 16.1772 37.5554 16.1772C36.363 16.1772 35.3965 17.1438 35.3965 18.3361C35.3965 19.5284 36.363 20.495 37.5554 20.495Z" fill="white"/>
</g>
<defs>
<clipPath id="clip0_430_326">
<rect width="36.0062" height="36.0062" fill="white" transform="translate(9.94189 9.94189)"/>
</clipPath>
</defs>
</svg>
